<svg aria-hidden="true" style="position: absolute; width: 0; height: 0; overflow: hidden;" version="1.1" xmlns="http://www.w3.org/2000/svg" xmlns:xlink="http://www.w3.org/1999/xlink">
<defs>
<symbol id="icon-facebook" viewBox="0 0 28 28">
<path  d="M18.664 4.65h2.555v-4.452c-1.083-0.126-2.338-0.198-3.61-0.198-0.040 0-0.080 0-0.121 0l0.006-0c-3.685 0-6.207 2.319-6.207 6.58v3.92h-4.069v4.977h4.067v12.523h4.986v-12.521h3.903l0.619-4.979h-4.524v-3.43c0.002-1.438 0.389-2.422 2.394-2.422z"></path>
</symbol>
<symbol id="icon-instagram" viewBox="0 0 28 28">
<path  d="M15.199 2.335c0.852-0.004 1.703 0.005 2.555 0.026l0.227 0.007 0.83 0.035c1.242 0.059 2.088 0.255 2.831 0.542 0.77 0.297 1.418 0.698 2.067 1.348 0.593 0.583 1.052 1.288 1.346 2.065 0.287 0.744 0.483 1.593 0.543 2.833l0.035 0.831 0.007 0.226c0.021 0.851 0.030 1.701 0.026 2.553v2.397c0 0.101 0.001 0.22 0.001 0.339 0 0.779-0.010 1.556-0.029 2.331l0.002-0.115-0.007 0.226c-0.009 0.262-0.021 0.52-0.035 0.831-0.058 1.241-0.255 2.088-0.543 2.831-0.292 0.779-0.752 1.484-1.346 2.065-0.569 0.579-1.258 1.037-2.028 1.334l-0.039 0.013c-0.744 0.287-1.591 0.483-2.831 0.543l-0.831 0.035-0.228 0.007c-0.66 0.017-1.437 0.027-2.216 0.027-0.119 0-0.237-0-0.356-0.001l0.018 0h-2.398c-0.098 0-0.214 0.001-0.331 0.001-0.782 0-1.561-0.010-2.338-0.029l0.115 0.002-0.227-0.007c-0.423-0.015-0.712-0.027-1-0.042l0.171 0.007c-1.242-0.058-2.088-0.256-2.833-0.543-0.808-0.31-1.497-0.768-2.064-1.347l-0.001-0.001c-0.579-0.568-1.037-1.257-1.334-2.026l-0.013-0.039c-0.287-0.744-0.483-1.593-0.542-2.832-0.006-0.089-0.019-0.379-0.030-0.668l-0.005-0.163-0.005-0.227c-0.019-0.7-0.030-1.524-0.030-2.351 0-0.071 0-0.142 0-0.213l-0 0.011v-2.397c-0.002-0.852 0.005-1.703 0.026-2.555l0.009-0.224c0.009-0.263 0.021-0.522 0.035-0.831 0.058-1.242 0.254-2.088 0.543-2.833 0.292-0.779 0.752-1.482 1.347-2.065 0.583-0.595 1.288-1.053 2.065-1.347 0.746-0.287 1.593-0.483 2.835-0.542l0.829-0.035 0.228-0.005c0.849-0.021 1.699-0.031 2.551-0.030l2.398 0.002zM14 8.167c-3.221 0-5.833 2.611-5.833 5.833s2.611 5.833 5.833 5.833v0c3.221 0 5.833-2.611 5.833-5.833s-2.611-5.833-5.833-5.833v0zM14 10.502c0.023-0.001 0.051-0.001 0.078-0.001 1.933 0 3.5 1.567 3.5 3.5s-1.567 3.5-3.5 3.5c-0.028 0-0.055-0-0.082-0.001l0.004 0c-1.933 0-3.5-1.567-3.5-3.5s1.567-3.5 3.5-3.5v0zM20.125 6.417c-0.805 0-1.458 0.653-1.458 1.458s0.653 1.458 1.458 1.458v0c0.806 0 1.459-0.653 1.459-1.459s-0.653-1.459-1.459-1.459v0 0.002z"></path>
</symbol>
<symbol id="icon-tiktok" viewBox="0 0 28 28">
<path  d="M18.667 9.62v8.463c0 0 0 0 0 0 0 4.189-3.396 7.584-7.584 7.584s-7.585-3.396-7.585-7.584c0-4.189 3.396-7.585 7.585-7.585 0.621 0 1.224 0.075 1.802 0.215l-0.052-0.011v3.691c-0.512-0.248-1.113-0.393-1.748-0.393-2.255 0-4.083 1.828-4.083 4.083s1.828 4.083 4.083 4.083c2.255 0 4.083-1.828 4.083-4.083 0-0 0-0 0-0.001v0-15.75h3.5c0 0.001 0 0.001 0 0.002 0 3.221 2.611 5.833 5.833 5.833v0 3.5c-0.004 0-0.009 0-0.014 0-2.211 0-4.241-0.772-5.837-2.061l0.018 0.014z"></path>
</symbol>
<symbol id="icon-youtube" viewBox="0 0 28 28">
<path  d="M14.285 4.667c0.623 0.003 2.18 0.018 3.838 0.084l0.588 0.026c1.668 0.079 3.334 0.213 4.16 0.443 1.103 0.311 1.969 1.215 2.261 2.359 0.467 1.82 0.525 5.369 0.532 6.23l0.002 0.177v0.203c-0.009 0.859-0.067 4.41-0.534 6.23-0.289 1.136-1.143 2.022-2.238 2.351l-0.023 0.006c-0.826 0.231-2.492 0.366-4.16 0.444l-0.588 0.026c-1.657 0.065-3.215 0.082-3.838 0.084h-0.572c-1.318-0.007-6.832-0.066-8.587-0.555-1.118-0.336-1.972-1.222-2.256-2.336l-0.005-0.023c-0.466-1.82-0.525-5.369-0.532-6.228v-0.38c0.007-0.861 0.067-4.41 0.532-6.23 0.289-1.137 1.143-2.023 2.24-2.351l0.023-0.006c1.753-0.49 7.268-0.548 8.587-0.555h0.57zM11.666 9.917v8.166l7-4.083-7-4.083z"></path>
</symbol>
</defs>
</svg>
